# xmcd CD database file
# Copyright (C) 1997 Ti Kan
#
# Track frame offsets:
#  183
#  18953
#  38148
#  70455
#  85430
#  101398
#  124418
#  137173
#  157115
#
# Disc length: 2384 seconds
#
# Revision: 1
# Processed by: cddbd v1.4b41PL1 Copyright (c) Steve Scherf et al.
# Submitted via: CDWizzard Release:4.31
#
DISCID=7b094e09
DTITLE=Robert Pete Williams - Legacy of the Blues (Volume 9)
DYEAR=1900
DGENRE=
TTITLE0=Woman You Ain't No good
TTITLE1=Come Here, Sit Down On My Knee
TTITLE2=Angola Penitentiary Blues
TTITLE3=Late Night Boogie
TTITLE4=Goin' Out Have Myself A Ball
TTITLE5=Poor Girl Out On The Mountain
TTITLE6=Graveyard Blues
TTITLE7=You're My All Day Steady And My Midnight Dream
TTITLE8=Keep Your Bad Dog Off Me
EXTD=
EXTT0=
EXTT1=
EXTT2=
EXTT3=
EXTT4=
EXTT5=
EXTT6=
EXTT7=
EXTT8=
PLAYORDER=
